<svg width="222" height="222" viewBox="0 0 222 222" fill="none" xmlns="http://www.w3.org/2000/svg">
<circle cx="111" cy="111" r="62.7" transform="rotate(-180 111 111)" fill="white" stroke="#0C1320" stroke-width="6.6"/>
<mask id="path-2-inside-1_135_2987" fill="white">
<path d="M45 111C45 102.333 46.7072 93.7504 50.024 85.7429C53.3408 77.7354 58.2023 70.4596 64.331 64.331C70.4596 58.2023 77.7354 53.3408 85.7429 50.024C93.7504 46.7071 102.333 45 111 45C119.667 45 128.25 46.7071 136.257 50.024C144.265 53.3408 151.54 58.2023 157.669 64.331C163.798 70.4596 168.659 77.7354 171.976 85.7429C175.293 93.7504 177 102.333 177 111L111 111L45 111Z"/>
</mask>
<path d="M45 111C45 102.333 46.7072 93.7504 50.024 85.7429C53.3408 77.7354 58.2023 70.4596 64.331 64.331C70.4596 58.2023 77.7354 53.3408 85.7429 50.024C93.7504 46.7071 102.333 45 111 45C119.667 45 128.25 46.7071 136.257 50.024C144.265 53.3408 151.54 58.2023 157.669 64.331C163.798 70.4596 168.659 77.7354 171.976 85.7429C175.293 93.7504 177 102.333 177 111L111 111L45 111Z" fill="#8C0202" stroke="#0C1320" stroke-width="13.2" mask="url(#path-2-inside-1_135_2987)"/>
<circle cx="111" cy="111" r="25.7" fill="white" stroke="#0C1320" stroke-width="6.6"/>
<circle cx="111" cy="111" r="10.7" fill="white" stroke="#0C1320" stroke-width="6.6"/>
</svg>
